<mxfile host="app.diagrams.net" modified="2021-09-28T07:01:09.933Z" agent="5.0 (Windows NT 10.0; Win64; x64) AppleWebKit/537.36 (KHTML, like Gecko) Chrome/94.0.4606.61 Safari/537.36" etag="yIX3TKRLBUWTMlwZhMHs" version="15.3.5" type="github">
  <diagram id="aXsHD7Z4nfJTBLjKKZMQ" name="Page-1">
    <mxGraphModel dx="2076" dy="1042" grid="1" gridSize="10" guides="1" tooltips="1" connect="1" arrows="1" fold="1" page="1" pageScale="1" pageWidth="827" pageHeight="1169" math="0" shadow="0">
      <root>
        <mxCell id="0" />
        <mxCell id="1" parent="0" />
        <mxCell id="8f64qvsZTYQRd2PqQDZX-1" value="&lt;b style=&quot;font-size: 20px&quot;&gt;&lt;font style=&quot;font-size: 20px&quot; color=&quot;#ffffff&quot;&gt;Quy trình Cấp và Kiểm tra giấy đi đường điện tử trên &lt;br&gt;Hệ thống Bluezone (https://qr.tokhaiyte.vn/)&lt;/font&gt;&lt;/b&gt;" style="rounded=0;whiteSpace=wrap;html=1;hachureGap=4;pointerEvents=0;fillColor=#FF9999;" parent="1" vertex="1">
          <mxGeometry x="90" y="10" width="737" height="50" as="geometry" />
        </mxCell>
        <mxCell id="8f64qvsZTYQRd2PqQDZX-15" value="&lt;font color=&quot;#ffffff&quot; size=&quot;1&quot;&gt;&lt;b style=&quot;font-size: 15px&quot;&gt;&amp;nbsp; &amp;nbsp; &amp;nbsp; &amp;nbsp; &amp;nbsp; &amp;nbsp; &amp;nbsp; &amp;nbsp; &amp;nbsp; &amp;nbsp;Cán bộ, Công chức,&amp;nbsp; &amp;nbsp; &amp;nbsp; &amp;nbsp; &amp;nbsp; &amp;nbsp; &amp;nbsp; &amp;nbsp; &amp;nbsp; &amp;nbsp; Viên chức&lt;/b&gt;&lt;/font&gt;" style="rounded=0;whiteSpace=wrap;html=1;hachureGap=4;pointerEvents=0;fillColor=#6666FF;" parent="1" vertex="1">
          <mxGeometry x="90" y="60" width="230" height="50" as="geometry" />
        </mxCell>
        <mxCell id="8f64qvsZTYQRd2PqQDZX-16" value="&lt;font color=&quot;#ffffff&quot; size=&quot;1&quot;&gt;&lt;b style=&quot;font-size: 15px&quot;&gt;&amp;nbsp; &amp;nbsp; &amp;nbsp; &amp;nbsp; &amp;nbsp; &amp;nbsp; &amp;nbsp; &amp;nbsp; &amp;nbsp; &amp;nbsp;Cán bộ quản trị cấp&amp;nbsp; &amp;nbsp; &amp;nbsp; &amp;nbsp; &amp;nbsp; &amp;nbsp; &amp;nbsp; &amp;nbsp; &amp;nbsp; &amp;nbsp; giấy đi đường điện tử&lt;/b&gt;&lt;/font&gt;" style="rounded=0;whiteSpace=wrap;html=1;hachureGap=4;pointerEvents=0;fillColor=#00CC00;" parent="1" vertex="1">
          <mxGeometry x="330" y="60" width="236" height="50" as="geometry" />
        </mxCell>
        <mxCell id="8f64qvsZTYQRd2PqQDZX-17" value="&lt;font color=&quot;#ffffff&quot; size=&quot;1&quot;&gt;&lt;b style=&quot;font-size: 15px&quot;&gt;&amp;nbsp; &amp;nbsp; &amp;nbsp; &amp;nbsp; &amp;nbsp; &amp;nbsp; &amp;nbsp; &amp;nbsp; &amp;nbsp; &amp;nbsp; &amp;nbsp; Cán bộ tổ kiểm soát,&amp;nbsp; &amp;nbsp; &amp;nbsp; &amp;nbsp; &amp;nbsp; &amp;nbsp; &amp;nbsp; &amp;nbsp; &amp;nbsp; &amp;nbsp; &amp;nbsp; &amp;nbsp;tuần&amp;nbsp; tra lưu động&lt;/b&gt;&lt;/font&gt;" style="rounded=0;whiteSpace=wrap;html=1;hachureGap=4;pointerEvents=0;fillColor=#FF8000;" parent="1" vertex="1">
          <mxGeometry x="577" y="60" width="250" height="50" as="geometry" />
        </mxCell>
        <mxCell id="8f64qvsZTYQRd2PqQDZX-18" value="" style="image;html=1;image=img/lib/clip_art/people/Suit_Man_128x128.png;hachureGap=4;pointerEvents=0;fillColor=#00CC00;" parent="1" vertex="1">
          <mxGeometry x="90" y="65" width="40" height="40" as="geometry" />
        </mxCell>
        <mxCell id="8f64qvsZTYQRd2PqQDZX-20" value="" style="image;html=1;image=img/lib/clip_art/people/Suit_Woman_Blue_128x128.png;hachureGap=4;pointerEvents=0;fillColor=#00CC00;" parent="1" vertex="1">
          <mxGeometry x="120" y="65" width="40" height="40" as="geometry" />
        </mxCell>
        <mxCell id="8f64qvsZTYQRd2PqQDZX-21" value="" style="image;html=1;image=img/lib/clip_art/people/Suit_Man_Blue_128x128.png;hachureGap=4;pointerEvents=0;fillColor=#00CC00;" parent="1" vertex="1">
          <mxGeometry x="330" y="65" width="40" height="40" as="geometry" />
        </mxCell>
        <mxCell id="8f64qvsZTYQRd2PqQDZX-22" value="" style="shape=image;html=1;verticalLabelPosition=bottom;verticalAlign=top;imageAspect=0;image=img/clipart/Gear_128x128.png;hachureGap=4;pointerEvents=0;fillColor=#00CC00;" parent="1" vertex="1">
          <mxGeometry x="365" y="70" width="30" height="30" as="geometry" />
        </mxCell>
        <mxCell id="8f64qvsZTYQRd2PqQDZX-23" value="" style="image;html=1;image=img/lib/clip_art/people/Pilot_Man_Black_128x128.png;hachureGap=4;pointerEvents=0;fillColor=#00CC00;" parent="1" vertex="1">
          <mxGeometry x="577" y="65" width="50" height="40" as="geometry" />
        </mxCell>
        <mxCell id="8f64qvsZTYQRd2PqQDZX-24" value="" style="image;html=1;image=img/lib/clip_art/people/Pilot_Woman_128x128.png;hachureGap=4;pointerEvents=0;fillColor=#00CC00;" parent="1" vertex="1">
          <mxGeometry x="601" y="65" width="60" height="40" as="geometry" />
        </mxCell>
        <mxCell id="8f64qvsZTYQRd2PqQDZX-26" value="&lt;font color=&quot;#ffffff&quot;&gt;&lt;b&gt;Gửi thông tin đề nghị cấp giấy đi đường&lt;/b&gt;&lt;/font&gt;" style="rounded=0;whiteSpace=wrap;html=1;hachureGap=4;pointerEvents=0;fillColor=#6666FF;" parent="1" vertex="1">
          <mxGeometry x="130" y="120" width="120" height="60" as="geometry" />
        </mxCell>
        <mxCell id="8f64qvsZTYQRd2PqQDZX-27" value="&lt;font color=&quot;#ffffff&quot;&gt;&lt;b&gt;Tổng hợp thông tin cấp giấy đi đường&lt;/b&gt;&lt;/font&gt;" style="rounded=0;whiteSpace=wrap;html=1;hachureGap=4;pointerEvents=0;fillColor=#00CC00;" parent="1" vertex="1">
          <mxGeometry x="398.5" y="120" width="120" height="60" as="geometry" />
        </mxCell>
        <mxCell id="8f64qvsZTYQRd2PqQDZX-28" value="&lt;b&gt;&lt;font color=&quot;#ffffff&quot;&gt;Kiểm tra thông tin&lt;/font&gt;&lt;/b&gt;" style="rhombus;whiteSpace=wrap;html=1;hachureGap=4;pointerEvents=0;fillColor=#00CC00;" parent="1" vertex="1">
          <mxGeometry x="398.5" y="228" width="120" height="80" as="geometry" />
        </mxCell>
        <mxCell id="8f64qvsZTYQRd2PqQDZX-29" value="&lt;font color=&quot;#ffffff&quot;&gt;&lt;b&gt;Bổ sung thông tin giấy đi đường&lt;/b&gt;&lt;/font&gt;" style="rounded=0;whiteSpace=wrap;html=1;hachureGap=4;pointerEvents=0;fillColor=#6666FF;" parent="1" vertex="1">
          <mxGeometry x="130" y="238" width="120" height="60" as="geometry" />
        </mxCell>
        <mxCell id="8f64qvsZTYQRd2PqQDZX-33" value="" style="edgeStyle=elbowEdgeStyle;elbow=horizontal;endArrow=classic;html=1;startSize=14;endSize=14;targetPerimeterSpacing=8;entryX=0;entryY=0.75;entryDx=0;entryDy=0;startArrow=none;" parent="1" target="8f64qvsZTYQRd2PqQDZX-27" edge="1" source="8f64qvsZTYQRd2PqQDZX-36">
          <mxGeometry width="50" height="50" relative="1" as="geometry">
            <mxPoint x="287" y="200" as="sourcePoint" />
            <mxPoint x="350" y="170" as="targetPoint" />
          </mxGeometry>
        </mxCell>
        <mxCell id="8f64qvsZTYQRd2PqQDZX-34" value="" style="endArrow=classic;html=1;startSize=14;endSize=14;targetPerimeterSpacing=8;exitX=0;exitY=0.5;exitDx=0;exitDy=0;entryX=1;entryY=0.5;entryDx=0;entryDy=0;startArrow=none;" parent="1" target="8f64qvsZTYQRd2PqQDZX-29" edge="1">
          <mxGeometry width="50" height="50" relative="1" as="geometry">
            <mxPoint x="293.9999999999998" y="268" as="sourcePoint" />
            <mxPoint x="410" y="170" as="targetPoint" />
          </mxGeometry>
        </mxCell>
        <mxCell id="8f64qvsZTYQRd2PqQDZX-35" value="" style="endArrow=classic;html=1;startSize=14;endSize=14;targetPerimeterSpacing=8;exitX=1;exitY=0.5;exitDx=0;exitDy=0;entryX=0;entryY=0.5;entryDx=0;entryDy=0;startArrow=none;" parent="1" source="8f64qvsZTYQRd2PqQDZX-37" target="8f64qvsZTYQRd2PqQDZX-27" edge="1">
          <mxGeometry width="50" height="50" relative="1" as="geometry">
            <mxPoint x="300" y="220" as="sourcePoint" />
            <mxPoint x="350" y="170" as="targetPoint" />
          </mxGeometry>
        </mxCell>
        <mxCell id="8f64qvsZTYQRd2PqQDZX-38" value="&lt;font color=&quot;#ffffff&quot;&gt;&lt;b&gt;Import thông tin lên Hệ thống cấp giấy đi đường&lt;/b&gt;&lt;/font&gt;" style="rounded=0;whiteSpace=wrap;html=1;hachureGap=4;pointerEvents=0;fillColor=#00CC00;" parent="1" vertex="1">
          <mxGeometry x="398.5" y="370" width="120" height="60" as="geometry" />
        </mxCell>
        <mxCell id="8f64qvsZTYQRd2PqQDZX-41" value="" style="endArrow=classic;html=1;startSize=14;endSize=14;sourcePerimeterSpacing=8;targetPerimeterSpacing=8;exitX=0.5;exitY=1;exitDx=0;exitDy=0;entryX=0.5;entryY=0;entryDx=0;entryDy=0;" parent="1" source="8f64qvsZTYQRd2PqQDZX-27" target="8f64qvsZTYQRd2PqQDZX-28" edge="1">
          <mxGeometry width="50" height="50" relative="1" as="geometry">
            <mxPoint x="365" y="300" as="sourcePoint" />
            <mxPoint x="415" y="250" as="targetPoint" />
          </mxGeometry>
        </mxCell>
        <mxCell id="8f64qvsZTYQRd2PqQDZX-40" value="Yêu cầu bổ sung" style="text;html=1;strokeColor=none;fillColor=none;align=center;verticalAlign=middle;whiteSpace=wrap;rounded=0;hachureGap=4;pointerEvents=0;" parent="1" vertex="1">
          <mxGeometry x="279" y="258" width="109" height="20" as="geometry" />
        </mxCell>
        <mxCell id="8f64qvsZTYQRd2PqQDZX-42" value="" style="endArrow=none;html=1;startSize=14;endSize=14;sourcePerimeterSpacing=8;exitX=0;exitY=0.5;exitDx=0;exitDy=0;entryX=1;entryY=0.5;entryDx=0;entryDy=0;" parent="1" source="8f64qvsZTYQRd2PqQDZX-28" target="8f64qvsZTYQRd2PqQDZX-40" edge="1">
          <mxGeometry width="50" height="50" relative="1" as="geometry">
            <mxPoint x="365" y="268" as="sourcePoint" />
            <mxPoint x="190" y="268" as="targetPoint" />
          </mxGeometry>
        </mxCell>
        <mxCell id="8f64qvsZTYQRd2PqQDZX-43" value="" style="edgeStyle=elbowEdgeStyle;elbow=horizontal;endArrow=none;html=1;startSize=14;endSize=14;sourcePerimeterSpacing=8;exitX=1.001;exitY=0.12;exitDx=0;exitDy=0;exitPerimeter=0;" parent="1" source="8f64qvsZTYQRd2PqQDZX-29" target="8f64qvsZTYQRd2PqQDZX-36" edge="1">
          <mxGeometry width="50" height="50" relative="1" as="geometry">
            <mxPoint x="250.12" y="245.19999999999993" as="sourcePoint" />
            <mxPoint x="278.9999999999998" y="200" as="targetPoint" />
          </mxGeometry>
        </mxCell>
        <mxCell id="8f64qvsZTYQRd2PqQDZX-45" value="" style="endArrow=classic;html=1;startSize=14;endSize=14;targetPerimeterSpacing=8;exitX=0.5;exitY=1;exitDx=0;exitDy=0;startArrow=none;entryX=0.5;entryY=0;entryDx=0;entryDy=0;" parent="1" source="8f64qvsZTYQRd2PqQDZX-50" target="8f64qvsZTYQRd2PqQDZX-38" edge="1">
          <mxGeometry width="50" height="50" relative="1" as="geometry">
            <mxPoint x="490.5" y="308" as="sourcePoint" />
            <mxPoint x="490" y="370" as="targetPoint" />
          </mxGeometry>
        </mxCell>
        <mxCell id="8f64qvsZTYQRd2PqQDZX-50" value="Hợp lệ" style="text;html=1;strokeColor=none;fillColor=none;align=center;verticalAlign=middle;whiteSpace=wrap;rounded=0;hachureGap=4;pointerEvents=0;" parent="1" vertex="1">
          <mxGeometry x="431" y="320" width="55" height="20" as="geometry" />
        </mxCell>
        <mxCell id="8f64qvsZTYQRd2PqQDZX-54" value="" style="endArrow=none;html=1;startSize=14;endSize=14;sourcePerimeterSpacing=8;exitX=0.5;exitY=1;exitDx=0;exitDy=0;entryX=0.5;entryY=0;entryDx=0;entryDy=0;" parent="1" target="8f64qvsZTYQRd2PqQDZX-50" edge="1" source="8f64qvsZTYQRd2PqQDZX-28">
          <mxGeometry width="50" height="50" relative="1" as="geometry">
            <mxPoint x="490.4999999999998" y="308" as="sourcePoint" />
            <mxPoint x="490.4999999999998" y="356" as="targetPoint" />
          </mxGeometry>
        </mxCell>
        <mxCell id="8f64qvsZTYQRd2PqQDZX-55" value="&lt;font color=&quot;#ffffff&quot;&gt;&lt;b&gt;Ứng dụng Bluezone&lt;/b&gt;&lt;/font&gt;" style="rounded=0;whiteSpace=wrap;html=1;hachureGap=4;pointerEvents=0;fillColor=#6666FF;" parent="1" vertex="1">
          <mxGeometry x="130" y="370" width="120" height="60" as="geometry" />
        </mxCell>
        <mxCell id="8f64qvsZTYQRd2PqQDZX-65" value="" style="endArrow=classic;html=1;startSize=14;endSize=14;targetPerimeterSpacing=8;exitX=0;exitY=0.5;exitDx=0;exitDy=0;entryX=1;entryY=0.5;entryDx=0;entryDy=0;startArrow=none;" parent="1" target="8f64qvsZTYQRd2PqQDZX-55" edge="1">
          <mxGeometry width="50" height="50" relative="1" as="geometry">
            <mxPoint x="292.0000000000002" y="400" as="sourcePoint" />
            <mxPoint x="390" y="330" as="targetPoint" />
          </mxGeometry>
        </mxCell>
        <mxCell id="8f64qvsZTYQRd2PqQDZX-47" value="Tự động đồng bộ dữ liệu" style="text;html=1;strokeColor=none;fillColor=none;align=center;verticalAlign=middle;whiteSpace=wrap;rounded=0;hachureGap=4;pointerEvents=0;" parent="1" vertex="1">
          <mxGeometry x="279" y="390" width="98" height="20" as="geometry" />
        </mxCell>
        <mxCell id="8f64qvsZTYQRd2PqQDZX-66" value="" style="endArrow=none;html=1;startSize=14;endSize=14;sourcePerimeterSpacing=8;exitX=0;exitY=0.5;exitDx=0;exitDy=0;entryX=1;entryY=0.5;entryDx=0;entryDy=0;" parent="1" source="8f64qvsZTYQRd2PqQDZX-38" target="8f64qvsZTYQRd2PqQDZX-47" edge="1">
          <mxGeometry width="50" height="50" relative="1" as="geometry">
            <mxPoint x="365" y="400" as="sourcePoint" />
            <mxPoint x="190" y="400" as="targetPoint" />
          </mxGeometry>
        </mxCell>
        <mxCell id="8f64qvsZTYQRd2PqQDZX-67" value="&lt;font color=&quot;#ffffff&quot;&gt;&lt;b&gt;Giấy đi đường (Trường hợp không có cài đặt Bluezone)&lt;/b&gt;&lt;/font&gt;" style="rounded=0;whiteSpace=wrap;html=1;hachureGap=4;pointerEvents=0;fillColor=#6666FF;" parent="1" vertex="1">
          <mxGeometry x="130" y="450" width="120" height="60" as="geometry" />
        </mxCell>
        <mxCell id="8f64qvsZTYQRd2PqQDZX-69" value="" style="edgeStyle=elbowEdgeStyle;elbow=horizontal;endArrow=classic;html=1;startSize=14;endSize=14;targetPerimeterSpacing=8;entryX=1;entryY=0.5;entryDx=0;entryDy=0;entryPerimeter=0;startArrow=none;" parent="1" source="8f64qvsZTYQRd2PqQDZX-70" target="8f64qvsZTYQRd2PqQDZX-67" edge="1">
          <mxGeometry width="50" height="50" relative="1" as="geometry">
            <mxPoint x="299.5000000000002" y="480" as="sourcePoint" />
            <mxPoint x="403" y="490" as="targetPoint" />
            <Array as="points" />
          </mxGeometry>
        </mxCell>
        <mxCell id="8f64qvsZTYQRd2PqQDZX-70" value="In hoặc gửi file" style="text;html=1;strokeColor=none;fillColor=none;align=center;verticalAlign=middle;whiteSpace=wrap;rounded=0;hachureGap=4;pointerEvents=0;" parent="1" vertex="1">
          <mxGeometry x="279" y="470" width="98" height="20" as="geometry" />
        </mxCell>
        <mxCell id="8f64qvsZTYQRd2PqQDZX-71" value="" style="edgeStyle=elbowEdgeStyle;elbow=horizontal;endArrow=none;html=1;startSize=14;endSize=14;sourcePerimeterSpacing=8;exitX=0;exitY=0.75;exitDx=0;exitDy=0;entryX=1;entryY=0.5;entryDx=0;entryDy=0;entryPerimeter=0;" parent="1" source="8f64qvsZTYQRd2PqQDZX-38" target="8f64qvsZTYQRd2PqQDZX-70" edge="1">
          <mxGeometry width="50" height="50" relative="1" as="geometry">
            <mxPoint x="365" y="400" as="sourcePoint" />
            <mxPoint x="190" y="480" as="targetPoint" />
            <Array as="points" />
          </mxGeometry>
        </mxCell>
        <mxCell id="8f64qvsZTYQRd2PqQDZX-72" value="&lt;font color=&quot;#ffffff&quot;&gt;&lt;b&gt;Yêu cầu kiểm tra thông tin giấy đi đường&lt;/b&gt;&lt;/font&gt;" style="rounded=0;whiteSpace=wrap;html=1;hachureGap=4;pointerEvents=0;fillColor=#FF8000;" parent="1" vertex="1">
          <mxGeometry x="650" y="560" width="120" height="60" as="geometry" />
        </mxCell>
        <mxCell id="8f64qvsZTYQRd2PqQDZX-73" value="" style="rounded=0;whiteSpace=wrap;html=1;hachureGap=4;pointerEvents=0;fillColor=#FF9999;" parent="1" vertex="1">
          <mxGeometry x="10" y="10" width="80" height="1150" as="geometry" />
        </mxCell>
        <mxCell id="8f64qvsZTYQRd2PqQDZX-74" value="&lt;b&gt;&lt;font style=&quot;font-size: 15px&quot; color=&quot;#ffffff&quot;&gt;Cấp giấy đi đường&lt;/font&gt;&lt;/b&gt;" style="rounded=0;whiteSpace=wrap;html=1;hachureGap=4;pointerEvents=0;fillColor=#00CC00;" parent="1" vertex="1">
          <mxGeometry x="10" y="95" width="80" height="435" as="geometry" />
        </mxCell>
        <mxCell id="8f64qvsZTYQRd2PqQDZX-75" value="&lt;b&gt;&lt;font style=&quot;font-size: 15px&quot; color=&quot;#ffffff&quot;&gt;Kiểm tra thông tin giấy đi đường&lt;/font&gt;&lt;/b&gt;" style="rounded=0;whiteSpace=wrap;html=1;hachureGap=4;pointerEvents=0;fillColor=#00CC00;" parent="1" vertex="1">
          <mxGeometry x="10" y="550" width="80" height="610" as="geometry" />
        </mxCell>
        <mxCell id="8f64qvsZTYQRd2PqQDZX-76" value="&lt;font color=&quot;#ffffff&quot;&gt;&lt;b&gt;Nhận yêu cầu kiểm tra giấy đi đường&lt;/b&gt;&lt;/font&gt;" style="rounded=0;whiteSpace=wrap;html=1;hachureGap=4;pointerEvents=0;fillColor=#6666FF;" parent="1" vertex="1">
          <mxGeometry x="130" y="560" width="130" height="60" as="geometry" />
        </mxCell>
        <mxCell id="8f64qvsZTYQRd2PqQDZX-77" value="" style="endArrow=classic;html=1;startSize=14;endSize=14;targetPerimeterSpacing=8;entryX=1;entryY=0.5;entryDx=0;entryDy=0;startArrow=none;exitX=0;exitY=0.5;exitDx=0;exitDy=0;" parent="1" source="8f64qvsZTYQRd2PqQDZX-85" target="8f64qvsZTYQRd2PqQDZX-76" edge="1">
          <mxGeometry width="50" height="50" relative="1" as="geometry">
            <mxPoint x="480" y="590" as="sourcePoint" />
            <mxPoint x="503" y="590" as="targetPoint" />
          </mxGeometry>
        </mxCell>
        <mxCell id="8f64qvsZTYQRd2PqQDZX-80" value="&lt;font color=&quot;#ffffff&quot;&gt;&lt;b&gt;Mã QR trên ứng dụng Bluezone hoặc trên giấy đi đường đã được in ra&lt;/b&gt;&lt;/font&gt;" style="rounded=0;whiteSpace=wrap;html=1;hachureGap=4;pointerEvents=0;fillColor=#6666FF;" parent="1" vertex="1">
          <mxGeometry x="130" y="700" width="130" height="60" as="geometry" />
        </mxCell>
        <mxCell id="8f64qvsZTYQRd2PqQDZX-81" value="&lt;b&gt;&lt;font color=&quot;#ffffff&quot;&gt;Kiểm tra thông tin&lt;/font&gt;&lt;/b&gt;" style="rhombus;whiteSpace=wrap;html=1;hachureGap=4;pointerEvents=0;fillColor=#FF8000;" parent="1" vertex="1">
          <mxGeometry x="650" y="820" width="120" height="90" as="geometry" />
        </mxCell>
        <mxCell id="8f64qvsZTYQRd2PqQDZX-82" value="" style="endArrow=classic;html=1;startSize=14;endSize=14;targetPerimeterSpacing=8;exitX=0.5;exitY=1;exitDx=0;exitDy=0;entryX=0.5;entryY=0;entryDx=0;entryDy=0;startArrow=none;" parent="1" source="8f64qvsZTYQRd2PqQDZX-90" target="8f64qvsZTYQRd2PqQDZX-80" edge="1">
          <mxGeometry width="50" height="50" relative="1" as="geometry">
            <mxPoint x="370" y="710" as="sourcePoint" />
            <mxPoint x="420" y="660" as="targetPoint" />
          </mxGeometry>
        </mxCell>
        <mxCell id="8f64qvsZTYQRd2PqQDZX-83" value="&lt;font color=&quot;#ffffff&quot;&gt;&lt;b&gt;Sử dụng ứng dụng Bluezone quét mã QR giấy đi đường&lt;/b&gt;&lt;/font&gt;" style="rounded=0;whiteSpace=wrap;html=1;hachureGap=4;pointerEvents=0;fillColor=#FF8000;" parent="1" vertex="1">
          <mxGeometry x="650" y="700" width="120" height="60" as="geometry" />
        </mxCell>
        <mxCell id="8f64qvsZTYQRd2PqQDZX-84" value="" style="endArrow=classic;html=1;startSize=14;endSize=14;targetPerimeterSpacing=8;entryX=0;entryY=0.5;entryDx=0;entryDy=0;startArrow=none;exitX=1;exitY=0.5;exitDx=0;exitDy=0;" parent="1" source="8f64qvsZTYQRd2PqQDZX-87" target="8f64qvsZTYQRd2PqQDZX-83" edge="1">
          <mxGeometry width="50" height="50" relative="1" as="geometry">
            <mxPoint x="643" y="820" as="sourcePoint" />
            <mxPoint x="183" y="820" as="targetPoint" />
          </mxGeometry>
        </mxCell>
        <mxCell id="8f64qvsZTYQRd2PqQDZX-85" value="Gửi yêu cầu" style="text;html=1;strokeColor=none;fillColor=none;align=center;verticalAlign=middle;whiteSpace=wrap;rounded=0;hachureGap=4;pointerEvents=0;" parent="1" vertex="1">
          <mxGeometry x="377" y="570" width="98" height="40" as="geometry" />
        </mxCell>
        <mxCell id="8f64qvsZTYQRd2PqQDZX-86" value="" style="endArrow=none;html=1;startSize=14;endSize=14;entryX=1;entryY=0.5;entryDx=0;entryDy=0;startArrow=none;exitX=0;exitY=0.5;exitDx=0;exitDy=0;" parent="1" source="8f64qvsZTYQRd2PqQDZX-72" target="8f64qvsZTYQRd2PqQDZX-85" edge="1">
          <mxGeometry width="50" height="50" relative="1" as="geometry">
            <mxPoint x="650" y="590" as="sourcePoint" />
            <mxPoint x="190" y="590" as="targetPoint" />
          </mxGeometry>
        </mxCell>
        <mxCell id="8f64qvsZTYQRd2PqQDZX-87" value="Gửi kiểm tra" style="text;html=1;strokeColor=none;fillColor=none;align=center;verticalAlign=middle;whiteSpace=wrap;rounded=0;hachureGap=4;pointerEvents=0;" parent="1" vertex="1">
          <mxGeometry x="355" y="715" width="98" height="30" as="geometry" />
        </mxCell>
        <mxCell id="8f64qvsZTYQRd2PqQDZX-89" value="" style="endArrow=none;html=1;startSize=14;endSize=14;entryX=0;entryY=0.5;entryDx=0;entryDy=0;startArrow=none;exitX=1;exitY=0.5;exitDx=0;exitDy=0;" parent="1" source="8f64qvsZTYQRd2PqQDZX-80" target="8f64qvsZTYQRd2PqQDZX-87" edge="1">
          <mxGeometry width="50" height="50" relative="1" as="geometry">
            <mxPoint x="190" y="730" as="sourcePoint" />
            <mxPoint x="650" y="730" as="targetPoint" />
          </mxGeometry>
        </mxCell>
        <mxCell id="8f64qvsZTYQRd2PqQDZX-90" value="Xuất trình" style="text;html=1;strokeColor=none;fillColor=none;align=center;verticalAlign=middle;whiteSpace=wrap;rounded=0;hachureGap=4;pointerEvents=0;" parent="1" vertex="1">
          <mxGeometry x="146" y="640" width="98" height="30" as="geometry" />
        </mxCell>
        <mxCell id="8f64qvsZTYQRd2PqQDZX-91" value="" style="endArrow=none;html=1;startSize=14;endSize=14;sourcePerimeterSpacing=8;exitX=0.5;exitY=1;exitDx=0;exitDy=0;entryX=0.5;entryY=0;entryDx=0;entryDy=0;" parent="1" source="8f64qvsZTYQRd2PqQDZX-76" target="8f64qvsZTYQRd2PqQDZX-90" edge="1">
          <mxGeometry width="50" height="50" relative="1" as="geometry">
            <mxPoint x="200" y="620" as="sourcePoint" />
            <mxPoint x="200" y="700" as="targetPoint" />
          </mxGeometry>
        </mxCell>
        <mxCell id="33yD9v1-QD8rOYYIZOmJ-1" value="" style="endArrow=classic;html=1;startSize=14;endSize=14;sourcePerimeterSpacing=8;targetPerimeterSpacing=8;exitX=0.5;exitY=1;exitDx=0;exitDy=0;entryX=0.5;entryY=0;entryDx=0;entryDy=0;" edge="1" parent="1" source="8f64qvsZTYQRd2PqQDZX-83" target="8f64qvsZTYQRd2PqQDZX-81">
          <mxGeometry width="50" height="50" relative="1" as="geometry">
            <mxPoint x="300" y="900" as="sourcePoint" />
            <mxPoint x="350" y="850" as="targetPoint" />
          </mxGeometry>
        </mxCell>
        <mxCell id="33yD9v1-QD8rOYYIZOmJ-2" value="&lt;font color=&quot;#ffffff&quot;&gt;&lt;b&gt;Được phép di chuyển tiếp&lt;/b&gt;&lt;/font&gt;" style="rounded=0;whiteSpace=wrap;html=1;hachureGap=4;pointerEvents=0;fillColor=#6666FF;" vertex="1" parent="1">
          <mxGeometry x="130" y="836" width="130" height="60" as="geometry" />
        </mxCell>
        <mxCell id="33yD9v1-QD8rOYYIZOmJ-4" value="" style="endArrow=classic;html=1;startSize=14;endSize=14;targetPerimeterSpacing=8;exitX=0;exitY=0.5;exitDx=0;exitDy=0;startArrow=none;entryX=1;entryY=0.5;entryDx=0;entryDy=0;" edge="1" parent="1" source="33yD9v1-QD8rOYYIZOmJ-5" target="33yD9v1-QD8rOYYIZOmJ-2">
          <mxGeometry width="50" height="50" relative="1" as="geometry">
            <mxPoint x="300" y="910" as="sourcePoint" />
            <mxPoint x="260" y="865" as="targetPoint" />
          </mxGeometry>
        </mxCell>
        <mxCell id="33yD9v1-QD8rOYYIZOmJ-5" value="Thông tin hợp lệ" style="text;html=1;strokeColor=none;fillColor=none;align=center;verticalAlign=middle;whiteSpace=wrap;rounded=0;hachureGap=4;pointerEvents=0;" vertex="1" parent="1">
          <mxGeometry x="355" y="850" width="98" height="30" as="geometry" />
        </mxCell>
        <mxCell id="33yD9v1-QD8rOYYIZOmJ-7" value="" style="endArrow=none;html=1;startSize=14;endSize=14;sourcePerimeterSpacing=8;exitX=0;exitY=0.5;exitDx=0;exitDy=0;" edge="1" parent="1" source="8f64qvsZTYQRd2PqQDZX-81" target="33yD9v1-QD8rOYYIZOmJ-5">
          <mxGeometry width="50" height="50" relative="1" as="geometry">
            <mxPoint x="650" y="865" as="sourcePoint" />
            <mxPoint x="190" y="865" as="targetPoint" />
          </mxGeometry>
        </mxCell>
        <mxCell id="33yD9v1-QD8rOYYIZOmJ-8" value="&lt;font color=&quot;#ffffff&quot;&gt;&lt;b&gt;Yêu cầu kiểm tra thông tin giấy đi đường&lt;/b&gt;&lt;/font&gt;" style="rounded=0;whiteSpace=wrap;html=1;hachureGap=4;pointerEvents=0;fillColor=#FF8000;" vertex="1" parent="1">
          <mxGeometry x="650" y="1000" width="120" height="60" as="geometry" />
        </mxCell>
        <mxCell id="33yD9v1-QD8rOYYIZOmJ-9" value="" style="endArrow=classic;html=1;startSize=14;endSize=14;targetPerimeterSpacing=8;exitX=0.5;exitY=1;exitDx=0;exitDy=0;entryX=0.5;entryY=0;entryDx=0;entryDy=0;startArrow=none;" edge="1" parent="1" source="33yD9v1-QD8rOYYIZOmJ-10" target="33yD9v1-QD8rOYYIZOmJ-8">
          <mxGeometry width="50" height="50" relative="1" as="geometry">
            <mxPoint x="590" y="1000" as="sourcePoint" />
            <mxPoint x="640" y="950" as="targetPoint" />
          </mxGeometry>
        </mxCell>
        <mxCell id="33yD9v1-QD8rOYYIZOmJ-10" value="Thông tin không hợp lệ" style="text;html=1;strokeColor=none;fillColor=none;align=center;verticalAlign=middle;whiteSpace=wrap;rounded=0;hachureGap=4;pointerEvents=0;" vertex="1" parent="1">
          <mxGeometry x="661" y="930" width="98" height="30" as="geometry" />
        </mxCell>
        <mxCell id="33yD9v1-QD8rOYYIZOmJ-11" value="" style="endArrow=none;html=1;startSize=14;endSize=14;sourcePerimeterSpacing=8;exitX=0.5;exitY=1;exitDx=0;exitDy=0;entryX=0.5;entryY=0;entryDx=0;entryDy=0;" edge="1" parent="1" source="8f64qvsZTYQRd2PqQDZX-81" target="33yD9v1-QD8rOYYIZOmJ-10">
          <mxGeometry width="50" height="50" relative="1" as="geometry">
            <mxPoint x="710" y="910" as="sourcePoint" />
            <mxPoint x="710" y="1000" as="targetPoint" />
          </mxGeometry>
        </mxCell>
        <mxCell id="8f64qvsZTYQRd2PqQDZX-37" value="Gửi thông tin" style="text;html=1;strokeColor=none;fillColor=none;align=center;verticalAlign=middle;whiteSpace=wrap;rounded=0;hachureGap=4;pointerEvents=0;" parent="1" vertex="1">
          <mxGeometry x="270" y="140" width="100" height="20" as="geometry" />
        </mxCell>
        <mxCell id="33yD9v1-QD8rOYYIZOmJ-14" value="" style="endArrow=none;html=1;startSize=14;endSize=14;sourcePerimeterSpacing=8;exitX=1;exitY=0.5;exitDx=0;exitDy=0;entryX=0;entryY=0.5;entryDx=0;entryDy=0;" edge="1" parent="1" source="8f64qvsZTYQRd2PqQDZX-26" target="8f64qvsZTYQRd2PqQDZX-37">
          <mxGeometry width="50" height="50" relative="1" as="geometry">
            <mxPoint x="250.0000000000001" y="150" as="sourcePoint" />
            <mxPoint x="430" y="150" as="targetPoint" />
          </mxGeometry>
        </mxCell>
        <mxCell id="8f64qvsZTYQRd2PqQDZX-36" value="Bổ sung" style="text;html=1;strokeColor=none;fillColor=none;align=center;verticalAlign=middle;whiteSpace=wrap;rounded=0;hachureGap=4;pointerEvents=0;" parent="1" vertex="1">
          <mxGeometry x="287" y="190" width="68" height="20" as="geometry" />
        </mxCell>
      </root>
    </mxGraphModel>
  </diagram>
</mxfile>
